<?xml version="1.0" standalone="no"?>
<!DOCTYPE svg PUBLIC "-//W3C//DTD SVG 20010904//EN"
 "http://www.w3.org/TR/2001/REC-SVG-20010904/DTD/svg10.dtd">
<svg version="1.0" xmlns="http://www.w3.org/2000/svg"
 width="737.000000pt" height="737.000000pt" viewBox="0 0 737.000000 737.000000"
 preserveAspectRatio="xMidYMid meet">
<metadata>
Created by potrace 1.11, written by Peter Selinger 2001-2013
</metadata>
<g transform="translate(0.000000,737.000000) scale(0.100000,-0.100000)"
fill="#000000" stroke="none">
<path d="M5691 7352 c-19 -10 -44 -35 -54 -56 -11 -20 -293 -310 -629 -645
l-609 -609 -70 28 c-144 60 -440 149 -549 166 -19 3 -51 9 -70 14 -19 5 -58
11 -85 15 -28 3 -64 8 -80 10 -209 27 -636 27 -795 0 -14 -2 -45 -7 -70 -10
-25 -4 -79 -13 -120 -21 -41 -8 -86 -17 -100 -20 -138 -27 -428 -122 -582
-191 -367 -165 -662 -367 -949 -653 -296 -293 -510 -606 -672 -980 -68 -158
-148 -405 -183 -565 -17 -78 -54 -316 -61 -390 -10 -108 -10 -506 0 -587 4
-32 10 -84 13 -115 3 -32 9 -74 14 -93 5 -19 11 -53 14 -75 21 -148 118 -482
182 -622 13 -28 24 -54 24 -57 0 -3 21 -49 47 -103 155 -322 350 -598 598
-848 158 -158 177 -176 311 -280 339 -265 736 -460 1151 -565 119 -30 299 -65
383 -74 25 -3 74 -9 110 -13 127 -15 587 -7 687 11 10 2 43 7 73 11 30 4 64 9
75 12 11 2 45 8 75 14 379 71 774 235 1130 467 59 39 244 177 271 202 8 8 47
43 85 76 55 50 186 179 239 238 50 54 187 227 225 282 135 196 233 370 318
566 44 99 134 348 126 348 -2 0 3 17 11 38 15 39 50 176 58 227 3 17 8 41 11
55 3 14 7 39 10 55 2 17 6 46 10 65 23 139 31 269 30 495 -1 180 -6 279 -18
355 -3 14 -7 48 -11 75 -3 28 -8 57 -10 65 -2 8 -6 31 -9 50 -3 19 -8 46 -11
60 -3 14 -8 36 -11 50 -22 110 -106 381 -162 517 l-21 51 610 611 c336 335
626 618 646 628 104 54 93 177 -33 374 -39 62 -195 273 -213 289 -3 3 -35 39
-71 80 -171 197 -474 498 -635 632 -23 18 -47 39 -55 46 -111 96 -319 240
-404 277 -80 35 -151 42 -195 17z"/>
</g>
</svg>
