<?xml version="1.0" standalone="no"?>
<!DOCTYPE svg PUBLIC "-//W3C//DTD SVG 20010904//EN"
 "http://www.w3.org/TR/2001/REC-SVG-20010904/DTD/svg10.dtd">
<svg version="1.0" xmlns="http://www.w3.org/2000/svg"
 width="1010.000000pt" height="1010.000000pt" viewBox="0 0 1010.000000 1010.000000"
 preserveAspectRatio="xMidYMid meet">
<metadata>
Created by potrace 1.11, written by Peter Selinger 2001-2013
</metadata>
<g transform="translate(0.000000,1010.000000) scale(0.100000,-0.100000)"
fill="#000000" stroke="none">
<path d="M6740 10043 c-169 -29 -330 -159 -395 -317 -24 -57 -42 -163 -38
-226 12 -227 178 -426 400 -479 51 -12 52 -13 41 -39 -29 -76 -12 -204 38
-283 29 -46 28 -44 7 -46 -62 -5 -145 -68 -179 -135 -50 -99 -38 -215 33 -297
36 -43 117 -91 152 -91 18 0 19 -3 10 -27 -11 -29 -6 -92 10 -121 40 -74 145
-99 216 -51 83 57 89 173 13 241 -19 16 -18 18 15 65 19 26 39 64 44 83 13 48
8 128 -11 174 -9 21 -16 40 -16 41 0 1 21 5 48 9 68 9 141 46 193 99 146 145
122 401 -47 518 l-43 30 36 57 c219 342 -27 797 -432 799 -39 1 -81 -1 -95 -4z
m231 -114 c168 -69 262 -217 255 -402 -10 -292 -314 -473 -582 -348 -83 39
-156 113 -197 198 -30 63 -32 75 -32 173 0 99 2 109 33 171 57 113 154 193
272 225 66 18 187 10 251 -17z m222 -808 c47 -18 104 -79 127 -137 64 -157
-44 -329 -213 -339 -185 -11 -321 180 -246 345 59 131 193 183 332 131z m-249
-569 c17 -10 44 -37 61 -61 25 -35 30 -52 30 -101 0 -49 -5 -66 -30 -101 -57
-81 -150 -105 -236 -61 -181 89 -102 362 100 346 24 -2 57 -12 75 -22z m66
-450 c27 -34 25 -77 -5 -107 -66 -67 -171 13 -127 97 27 49 98 55 132 10z"/>
<path d="M6231 7924 c-17 -14 -31 -31 -31 -37 0 -7 -202 -214 -450 -461 l-449
-450 -33 11 c-18 6 -73 26 -123 43 -92 33 -241 76 -298 85 -18 3 -45 8 -62 11
-16 2 -41 6 -55 9 -105 19 -203 27 -366 26 -78 0 -163 -3 -190 -6 -126 -15
-203 -26 -225 -31 -13 -3 -35 -7 -49 -10 -875 -176 -1587 -876 -1783 -1754
-14 -63 -29 -135 -32 -160 -3 -25 -10 -76 -15 -115 -9 -75 -6 -447 5 -530 5
-41 30 -174 50 -269 9 -43 69 -225 95 -291 120 -300 286 -551 520 -785 360
-360 783 -575 1295 -656 163 -26 501 -28 665 -3 420 63 787 219 1110 473 388
304 667 724 799 1203 26 96 37 149 66 323 23 133 22 463 0 591 -2 13 -9 56
-15 94 -6 39 -16 88 -22 110 -5 22 -12 49 -14 60 -7 40 -43 152 -74 235 -17
47 -34 95 -37 107 -4 19 66 93 438 466 244 243 458 451 476 462 64 38 69 100
16 206 -20 41 -39 76 -43 79 -3 3 -27 35 -52 71 -189 268 -651 714 -881 851
-123 74 -185 85 -236 42z"/>
<path d="M528 2112 c-18 -2 -28 -9 -28 -20 0 -16 220 -17 3393 -19 1866 -1
3781 -4 4254 -7 723 -4 864 -2 880 10 22 16 24 16 -112 21 -209 7 -8330 21
-8387 15z"/>
<path d="M3980 1659 c-317 -75 -571 -351 -615 -669 -8 -56 -8 -193 -1 -240 20
-115 58 -227 101 -292 14 -21 25 -40 25 -43 0 -8 31 -45 99 -117 73 -77 184
-152 283 -191 299 -119 664 -38 873 195 l47 52 -29 24 c-54 44 -55 44 -113
-12 -93 -88 -205 -152 -323 -183 -76 -20 -240 -22 -316 -3 -263 63 -472 274
-527 533 -71 334 98 664 412 803 237 105 530 54 726 -125 58 -53 51 -53 114
-2 l29 23 -61 57 c-192 177 -472 250 -724 190z"/>
<path d="M8768 1622 c-69 -146 -138 -294 -138 -297 0 -1 -25 -56 -56 -121 -31
-66 -69 -148 -86 -184 -17 -36 -45 -96 -63 -135 -18 -38 -59 -126 -90 -195
-32 -69 -86 -185 -121 -259 -35 -73 -64 -135 -64 -137 0 -1 -23 -51 -50 -110
-28 -59 -49 -108 -47 -110 8 -8 109 -6 116 2 5 5 48 96 97 201 l89 193 426 0
426 0 88 -200 c59 -134 93 -200 104 -201 29 -3 95 1 99 6 3 3 -22 62 -123 290
-7 17 -72 163 -143 325 -283 643 -382 868 -409 927 l-28 63 -27 -58z m206
-625 c97 -219 176 -401 176 -406 0 -4 -166 -8 -370 -8 -203 0 -370 2 -370 3 0
1 27 59 60 129 33 70 60 128 60 130 0 2 21 47 46 102 25 54 59 125 74 158 15
33 48 104 74 158 25 54 46 102 46 106 0 7 22 32 26 28 1 -1 81 -181 178 -400z"/>
<path d="M17 1662 c-16 -3 -17 -62 -17 -797 0 -888 -8 -804 72 -797 l38 4 0
367 0 367 358 0 357 -1 5 25 c3 14 4 40 2 58 l-4 32 -197 1 c-108 0 -269 0
-358 -1 l-163 -1 0 316 0 315 460 0 c253 0 460 3 461 8 5 39 2 95 -5 99 -9 6
-980 10 -1009 5z"/>
<path d="M1509 1662 l-36 -3 -1 -794 0 -793 45 -4 c24 -2 49 0 55 3 8 5 11
239 11 795 0 767 0 787 -19 793 -10 4 -35 5 -55 3z"/>
<path d="M2006 1662 c-22 -2 -35 -6 -30 -10 11 -7 564 -780 564 -787 0 -3
-126 -181 -281 -397 l-280 -393 38 -5 c52 -7 101 0 106 14 3 6 113 163 245
349 l241 337 53 -73 c29 -41 141 -198 248 -349 210 -297 201 -288 288 -278
l42 5 -115 160 c-63 88 -121 169 -129 180 -63 87 -296 415 -306 431 -12 19 0
38 121 208 74 103 143 200 154 216 89 126 215 303 242 340 29 37 32 45 18 50
-13 4 -78 5 -115 0 -3 0 -16 -17 -30 -37 -14 -21 -87 -126 -163 -233 -76 -107
-145 -204 -153 -215 -7 -11 -38 -54 -68 -95 -30 -41 -62 -85 -71 -98 -16 -23
-19 -20 -246 300 -126 178 -238 335 -249 349 -20 28 -54 37 -124 31z"/>
<path d="M5158 1665 c0 0 -2 -359 -3 -797 -2 -888 -9 -809 70 -798 l40 5 0
738 0 737 135 1 c213 0 378 -2 397 -5 153 -30 269 -116 313 -234 63 -167 -35
-339 -235 -410 -58 -21 -163 -30 -354 -31 l-83 -1 28 -37 c15 -21 31 -40 34
-43 4 -4 415 -502 490 -594 8 -10 20 -23 25 -30 6 -6 26 -31 46 -56 l37 -46
68 4 c38 2 70 5 71 6 1 1 -10 16 -25 33 -15 17 -34 39 -42 50 -85 104 -250
303 -267 323 -11 14 -69 84 -127 155 l-107 130 93 6 c191 12 337 95 422 240
97 163 65 360 -81 503 -74 73 -203 131 -316 142 -47 5 -336 9 -629 9z"/>
<path d="M6674 1661 c-2 -2 -4 -362 -4 -800 l0 -796 510 1 c281 1 514 4 517 8
9 8 10 85 2 98 -5 8 -131 12 -461 12 l-453 1 -3 312 -2 312 282 0 c156 0 318
0 361 1 l77 0 0 55 0 55 -92 0 c-51 1 -213 1 -360 1 l-268 -1 0 315 0 315 459
0 c358 0 460 3 463 13 6 16 1 87 -6 94 -7 7 -1015 10 -1022 4z"/>
</g>
</svg>
